<svg width="17" height="16" viewBox="0 0 17 16" fill="none" xmlns="http://www.w3.org/2000/svg">
<path fill-rule="evenodd" clip-rule="evenodd" d="M5.15795 3.59356C3.36559 4.33835 1.95503 5.72842 1.27257 7.44369C1.1305 7.80078 1.1305 8.19922 1.27257 8.55631C2.3045 11.1499 5.00112 13 8.16525 13C9.98664 13 11.6531 12.387 12.9363 11.3719L10.4893 8.92494C10.1216 9.84779 9.21998 10.5 8.16602 10.5C6.7853 10.5 5.66602 9.38071 5.66602 8C5.66602 6.94603 6.31823 6.0444 7.24107 5.67668L5.15795 3.59356ZM14.315 9.92216C14.6153 9.4975 14.8655 9.03983 15.0579 8.55631C15.2 8.19922 15.2 7.80078 15.0579 7.44369C14.026 4.85007 11.3294 3 8.16525 3C7.91598 3 7.66961 3.01148 7.42672 3.03391L14.315 9.92216Z" fill="white"/>
<path d="M2.16602 2L14.166 14" stroke="white" stroke-width="2" stroke-linecap="round"/>
</svg>
