<svg width="20" height="20" viewBox="0 0 20 20" fill="none" xmlns="http://www.w3.org/2000/svg">
<path d="M8.38419 0.366117C7.89604 -0.122039 7.10458 -0.122039 6.61643 0.366117C6.12827 0.854272 6.12827 1.64573 6.61643 2.13388L8.75031 4.26777V7.8347L5.66065 6.05089L4.87959 3.13595C4.70092 2.46912 4.01549 2.07339 3.34866 2.25207C2.68183 2.43074 2.2861 3.11616 2.46478 3.783L3.05632 5.99065L0.848661 6.58219C0.181829 6.76087 -0.2139 7.44629 -0.0352219 8.11312C0.143455 8.77996 0.828877 9.17568 1.49571 8.99701L4.41065 8.21595L7.50079 10L4.41187 11.7834L1.49693 11.0024C0.830097 10.8237 0.144676 11.2194 -0.0340012 11.8863C-0.212679 12.5531 0.183049 13.2385 0.849882 13.4172L3.05754 14.0087L2.466 16.2164C2.28732 16.8832 2.68305 17.5686 3.34988 17.7473C4.01671 17.926 4.70214 17.5303 4.88081 16.8634L5.66187 13.9485L8.75031 12.1654V15.7322L6.61643 17.8661C6.12827 18.3543 6.12827 19.1457 6.61643 19.6339C7.10458 20.122 7.89604 20.122 8.38419 19.6339L10.0003 18.0178L11.6164 19.6339C12.1046 20.122 12.896 20.122 13.3842 19.6339C13.8723 19.1457 13.8723 18.3543 13.3842 17.8661L11.2503 15.7322L11.2503 12.1654L14.3388 13.9485L15.1198 16.8634C15.2985 17.5303 15.9839 17.926 16.6507 17.7473C17.3176 17.5686 17.7133 16.8832 17.5346 16.2164L16.9431 14.0087L19.1507 13.4172C19.8176 13.2385 20.2133 12.5531 20.0346 11.8863C19.8559 11.2194 19.1705 10.8237 18.5037 11.0024L15.5888 11.7834L12.5004 10.0004L15.59 8.21656L18.5049 8.99762C19.1717 9.17629 19.8572 8.78057 20.0358 8.11373C20.2145 7.4469 19.8188 6.76148 19.152 6.5828L16.9443 5.99126L17.5358 3.78361C17.7145 3.11677 17.3188 2.43135 16.652 2.25268C15.9851 2.074 15.2997 2.46973 15.121 3.13656L14.34 6.0515L11.2503 7.83532V4.26777L13.3842 2.13388C13.8723 1.64573 13.8723 0.854272 13.3842 0.366117C12.896 -0.122039 12.1046 -0.122039 11.6164 0.366117L10.0003 1.98223L8.38419 0.366117Z" fill="#55637F"/>
</svg>
