<svg width="17" height="16" viewBox="0 0 17 16" fill="none" xmlns="http://www.w3.org/2000/svg">
<path d="M7.33398 5.25H14.4173C15.1986 5.25 15.834 5.88538 15.834 6.66667V13.75C15.834 14.5313 15.1986 15.1667 14.4173 15.1667H7.33398C6.55269 15.1667 5.91732 14.5313 5.91732 13.75V6.66667C5.91732 5.88538 6.55269 5.25 7.33398 5.25Z" fill="#55637F"/>
<path d="M3.08398 1H10.1673C10.543 1 10.9034 1.14926 11.1691 1.41493C11.4347 1.68061 11.584 2.04094 11.584 2.41667V3.83333H5.91732C5.54159 3.83333 5.18126 3.98259 4.91558 4.24827C4.64991 4.51394 4.50065 4.87428 4.50065 5.25V10.9167H3.08398C2.70826 10.9167 2.34793 10.7674 2.08225 10.5017C1.81657 10.2361 1.66732 9.87572 1.66732 9.5V2.41667C1.66732 2.04094 1.81657 1.68061 2.08225 1.41493C2.34793 1.14926 2.70826 1 3.08398 1Z" fill="#55637F"/>
</svg>
