<svg width="17" height="16" viewBox="0 0 17 16" fill="none" xmlns="http://www.w3.org/2000/svg">
<path fill-rule="evenodd" clip-rule="evenodd" d="M1.27257 7.44369C1.1305 7.80078 1.1305 8.19922 1.27257 8.55631C2.3045 11.1499 5.00112 13 8.16525 13C11.3294 13 14.026 11.1499 15.0579 8.55631C15.2 8.19922 15.2 7.80078 15.0579 7.44369C14.026 4.85007 11.3294 3 8.16525 3C5.00112 3 2.3045 4.85007 1.27257 7.44369ZM8.16602 10.5C9.54673 10.5 10.666 9.38071 10.666 8C10.666 6.61929 9.54673 5.5 8.16602 5.5C6.7853 5.5 5.66602 6.61929 5.66602 8C5.66602 9.38071 6.7853 10.5 8.16602 10.5Z" fill="white"/>
</svg>
