<svg width="48" height="48" viewBox="0 0 48 48" fill="none" xmlns="http://www.w3.org/2000/svg">
<g clip-path="url(#clip0_1142_38059)">
<rect width="48" height="48" rx="24" fill="#FFD337" fill-opacity="0.1"/>
<path d="M20.2054 28.272H20.1414C20.0454 28.816 19.7414 29.2747 19.2294 29.648C18.7281 30.0107 18.0561 30.192 17.2134 30.192C16.5521 30.192 15.9388 30.0693 15.3734 29.824C14.8188 29.5787 14.3334 29.216 13.9174 28.736C13.5121 28.2453 13.1921 27.6427 12.9574 26.928C12.7228 26.2133 12.6054 25.3867 12.6054 24.448C12.6054 23.5093 12.7228 22.6827 12.9574 21.968C13.2028 21.2427 13.5441 20.6347 13.9814 20.144C14.4188 19.6533 14.9414 19.28 15.5494 19.024C16.1574 18.768 16.8348 18.64 17.5814 18.64C18.5841 18.64 19.4374 18.8587 20.1414 19.296C20.8454 19.7333 21.4001 20.3627 21.8054 21.184L20.0934 22.192C19.8908 21.712 19.5868 21.312 19.1814 20.992C18.7868 20.672 18.2534 20.512 17.5814 20.512C16.7494 20.512 16.0828 20.768 15.5814 21.28C15.0908 21.7813 14.8454 22.528 14.8454 23.52V25.312C14.8454 26.2933 15.0961 27.04 15.5974 27.552C16.0988 28.064 16.7708 28.32 17.6134 28.32C17.9441 28.32 18.2534 28.2827 18.5414 28.208C18.8294 28.1227 19.0801 28 19.2934 27.84C19.5068 27.68 19.6774 27.4827 19.8054 27.248C19.9334 27.0133 19.9974 26.736 19.9974 26.416V25.696H17.8054V23.92H22.0294V30H20.2054V28.272ZM32.9081 21.984H32.8441L31.9801 23.76L29.6921 27.984L27.4041 23.76L26.5401 21.984H26.4761V30H24.4761V18.832H26.8601L29.7241 24.288H29.7881L32.6201 18.832H34.9081V30H32.9081V21.984Z" fill="#866C0F"/>
</g>
<defs>
<clipPath id="clip0_1142_38059">
<rect width="48" height="48" fill="white"/>
</clipPath>
</defs>
</svg>
