<svg width="48" height="48" viewBox="0 0 48 48" fill="none" xmlns="http://www.w3.org/2000/svg">
<g opacity="0.7" clip-path="url(#clip0_1142_38037)">
<rect width="48" height="48" rx="24" fill="#F4F9E7"/>
<path d="M14.312 18.832H19.48C19.9387 18.832 20.3493 18.9013 20.712 19.04C21.0853 19.1787 21.4 19.3707 21.656 19.616C21.912 19.8613 22.104 20.1653 22.232 20.528C22.3707 20.88 22.44 21.2693 22.44 21.696C22.44 22.1227 22.3813 22.4853 22.264 22.784C22.1573 23.072 22.008 23.312 21.816 23.504C21.6347 23.696 21.4213 23.84 21.176 23.936C20.9413 24.032 20.696 24.0853 20.44 24.096V24.192C20.6853 24.192 20.9467 24.24 21.224 24.336C21.512 24.432 21.7733 24.5867 22.008 24.8C22.2533 25.0027 22.456 25.2693 22.616 25.6C22.776 25.92 22.856 26.32 22.856 26.8C22.856 27.248 22.7813 27.6693 22.632 28.064C22.4933 28.448 22.296 28.784 22.04 29.072C21.784 29.36 21.48 29.5893 21.128 29.76C20.776 29.92 20.392 30 19.976 30H14.312V18.832ZM16.424 28.208H19.368C19.7733 28.208 20.088 28.1067 20.312 27.904C20.536 27.6907 20.648 27.3867 20.648 26.992V26.448C20.648 26.0533 20.536 25.7493 20.312 25.536C20.088 25.3227 19.7733 25.216 19.368 25.216H16.424V28.208ZM16.424 23.488H19.032C19.416 23.488 19.7147 23.3867 19.928 23.184C20.1413 22.9707 20.248 22.6773 20.248 22.304V21.808C20.248 21.4347 20.1413 21.1467 19.928 20.944C19.7147 20.7307 19.416 20.624 19.032 20.624H16.424V23.488ZM29.3054 30.192C28.5694 30.192 27.9027 30.0693 27.3054 29.824C26.708 29.5787 26.196 29.2107 25.7694 28.72C25.3534 28.2293 25.028 27.6267 24.7934 26.912C24.5587 26.1973 24.4414 25.3653 24.4414 24.416C24.4414 23.4773 24.5587 22.6507 24.7934 21.936C25.028 21.2107 25.3534 20.6027 25.7694 20.112C26.196 19.6213 26.708 19.2533 27.3054 19.008C27.9027 18.7627 28.5694 18.64 29.3054 18.64C30.0414 18.64 30.708 18.7627 31.3054 19.008C31.9027 19.2533 32.4147 19.6213 32.8414 20.112C33.268 20.6027 33.5934 21.2107 33.8174 21.936C34.052 22.6507 34.1694 23.4773 34.1694 24.416C34.1694 25.3653 34.052 26.1973 33.8174 26.912C33.5934 27.6267 33.268 28.2293 32.8414 28.72C32.4147 29.2107 31.9027 29.5787 31.3054 29.824C30.708 30.0693 30.0414 30.192 29.3054 30.192ZM29.3054 28.32C30.1054 28.32 30.74 28.0533 31.2094 27.52C31.6894 26.9867 31.9294 26.24 31.9294 25.28V23.552C31.9294 22.592 31.6894 21.8453 31.2094 21.312C30.74 20.7787 30.1054 20.512 29.3054 20.512C28.5054 20.512 27.8654 20.7787 27.3854 21.312C26.916 21.8453 26.6814 22.592 26.6814 23.552V25.28C26.6814 26.24 26.916 26.9867 27.3854 27.52C27.8654 28.0533 28.5054 28.32 29.3054 28.32Z" fill="#787E67"/>
</g>
<defs>
<clipPath id="clip0_1142_38037">
<rect width="48" height="48" fill="white"/>
</clipPath>
</defs>
</svg>
