<svg width="16" height="13" viewBox="0 0 16 13" fill="none" xmlns="http://www.w3.org/2000/svg">
<path fill-rule="evenodd" clip-rule="evenodd" d="M8.85176 1.38411C8.46127 0.749569 7.53893 0.749569 7.14844 1.38411L0.938006 11.4761C0.527994 12.1423 1.00734 13.0002 1.78966 13.0002H14.2105C14.9929 13.0002 15.4722 12.1423 15.0622 11.4761L8.85176 1.38411ZM8 4.50012C8.55228 4.50012 9 4.94784 9 5.50012V7.50012C9 8.05241 8.55228 8.50012 8 8.50012C7.44772 8.50012 7 8.05241 7 7.50012V5.50012C7 4.94784 7.44772 4.50012 8 4.50012ZM7 10.5001C7 9.94784 7.44772 9.50012 8 9.50012C8.55228 9.50012 9 9.94784 9 10.5001C9 11.0524 8.55228 11.5001 8 11.5001C7.44772 11.5001 7 11.0524 7 10.5001Z" fill="#FF4337"/>
</svg>
