<svg width="34" height="35" viewBox="0 0 34 35" fill="none" xmlns="http://www.w3.org/2000/svg">
<g filter="url(#filter0_d_1142_38462)">
<rect x="1" y="0.5" width="32" height="32" rx="16" fill="white"/>
<rect x="1.5" y="1" width="31" height="31" rx="15.5" stroke="#F0F1F5"/>
<path d="M10.9579 19.0088L17.029 12.9377C17.4195 12.5472 18.0527 12.5472 18.4432 12.9377L20.5645 15.059C20.9551 15.4495 20.9551 16.0827 20.5645 16.4732L14.5031 22.5347C14.3099 22.7279 14.046 22.8336 13.7729 22.8273L11.642 22.7782C11.0989 22.7657 10.6651 22.3218 10.6651 21.7785L10.665 19.7159C10.665 19.4506 10.7704 19.1963 10.9579 19.0088Z" fill="#55637F"/>
<path d="M23.0394 12.5841L20.9181 10.4628C20.5276 10.0723 19.8944 10.0723 19.5039 10.4628C19.1133 10.8533 19.1133 11.4865 19.5039 11.877L21.6252 13.9983C22.0157 14.3889 22.6489 14.3889 23.0394 13.9983C23.4299 13.6078 23.4299 12.9747 23.0394 12.5841Z" fill="#55637F"/>
</g>
<defs>
<filter id="filter0_d_1142_38462" x="0" y="0.5" width="34" height="34" filterUnits="userSpaceOnUse" color-interpolation-filters="sRGB">
<feFlood flood-opacity="0" result="BackgroundImageFix"/>
<feColorMatrix in="SourceAlpha" type="matrix" values="0 0 0 0 0 0 0 0 0 0 0 0 0 0 0 0 0 0 127 0" result="hardAlpha"/>
<feOffset dy="1"/>
<feGaussianBlur stdDeviation="0.5"/>
<feColorMatrix type="matrix" values="0 0 0 0 0.101961 0 0 0 0 0.117647 0 0 0 0 0.14902 0 0 0 0.02 0"/>
<feBlend mode="normal" in2="BackgroundImageFix" result="effect1_dropShadow_1142_38462"/>
<feBlend mode="normal" in="SourceGraphic" in2="effect1_dropShadow_1142_38462" result="shape"/>
</filter>
</defs>
</svg>
